<svg width="800" height="800" viewBox="0 0 800 800" fill="none" xmlns="http://www.w3.org/2000/svg">
<g clip-path="url(#clip0_1_10)">
<rect x="71" y="83" width="648" height="110" fill="#88B04B"/>
<rect x="71" y="214" width="648" height="545" fill="#BBDDF6"/>
<path fill-rule="evenodd" clip-rule="evenodd" d="M588.26 0C601.248 0 611.789 10.5417 611.789 23.5296V47.0588H682.378C721.295 47.0588 752.966 78.7296 752.966 117.647V800H47.0834V117.647C47.0834 78.7296 78.7538 47.0588 117.672 47.0588H188.259V23.5296C188.259 10.5412 198.801 0.000416667 211.789 0.000416667C224.778 0.000416667 235.318 10.5412 235.318 23.5296V47.0588H564.73V23.5296C564.73 10.5412 575.272 0 588.26 0ZM705.907 235.294H94.1425V752.941H705.907V235.294ZM188.26 94.1175H117.672C104.73 94.1175 94.1425 104.659 94.1425 117.647V188.235H705.907V117.647C705.907 104.659 695.319 94.1179 682.378 94.1179H611.789V117.647C611.789 130.635 601.248 141.177 588.26 141.177C575.272 141.177 564.73 130.635 564.73 117.647V94.1175H235.319V117.647C235.319 130.635 224.777 141.177 211.789 141.177C198.801 141.177 188.26 130.635 188.26 117.647V94.1175Z" fill="black"/>
<path d="M603.478 683.863C603.478 706.319 512.544 723.038 398.606 723.038C284.664 723.038 190.856 706.319 190.856 683.863C190.856 661.403 283.223 643.191 397.165 643.191C511.103 643.191 603.478 661.403 603.478 683.863Z" fill="#B8CBCD"/>
<path d="M477.543 667.144C386.241 667.144 314.723 632.615 314.723 588.538C314.723 505.728 387.764 438.355 477.543 438.355C567.321 438.355 640.362 505.728 640.362 588.538C640.362 632.615 568.844 667.144 477.543 667.144Z" fill="#F7BB83"/>
<path d="M477.543 446.34C562.686 446.34 631.706 510.003 631.706 588.538C631.706 627.545 564.049 659.159 477.543 659.159C391.036 659.159 323.379 627.541 323.379 588.538C323.379 510.003 392.4 446.34 477.543 446.34ZM477.543 430.371C382.99 430.371 306.067 501.324 306.067 588.538C306.067 637.901 379.783 675.128 477.543 675.128C575.302 675.128 649.019 637.901 649.019 588.538C649.019 501.324 572.095 430.371 477.543 430.371Z" fill="#6E4123"/>
<path d="M331.001 608.499C327.557 608.499 324.255 607.237 321.82 604.991C319.385 602.745 318.017 599.698 318.017 596.522C318.017 511.508 392.997 442.348 485.164 442.348C488.608 442.348 491.911 443.609 494.346 445.856C496.781 448.102 498.149 451.148 498.149 454.324C498.149 457.501 496.781 460.547 494.346 462.793C491.911 465.039 488.608 466.301 485.164 466.301C407.319 466.301 343.985 524.718 343.985 596.522C343.985 599.698 342.617 602.745 340.182 604.991C337.747 607.237 334.445 608.499 331.001 608.499Z" fill="white"/>
<path d="M295 711.058C229.822 711.058 160.559 692.287 160.559 657.495C160.559 588.522 221.396 532.407 296.173 532.407C370.95 532.407 431.79 588.522 431.79 657.495C431.79 692.287 361.311 711.058 295 711.058Z" fill="#F7BB83"/>
<path d="M296.173 540.392C366.288 540.392 423.134 592.821 423.134 657.495C423.134 682.669 364.47 703.073 295 703.073C225.529 703.073 169.216 682.669 169.216 657.495C169.216 592.821 226.053 540.392 296.173 540.392ZM296.173 524.423C216.622 524.423 151.903 584.118 151.903 657.495C151.903 697.9 223.893 719.042 295 719.042C367.275 719.042 440.446 697.9 440.446 657.495C440.446 584.118 375.724 524.423 296.173 524.423Z" fill="#6E4123"/>
<path d="M167.225 689.161C163.781 689.161 160.478 687.899 158.043 685.653C155.608 683.407 154.24 680.36 154.24 677.184C154.24 594.278 234.445 518.766 322.518 518.766C325.962 518.766 329.264 520.028 331.699 522.274C334.134 524.52 335.502 527.566 335.502 530.743C335.502 533.919 334.134 536.965 331.699 539.211C329.264 541.457 325.962 542.719 322.518 542.719C249.373 542.719 180.209 608.063 180.209 677.184C180.209 680.36 178.841 683.407 176.406 685.653C173.971 687.899 170.668 689.161 167.225 689.161Z" fill="white"/>
<path d="M477.543 446.34C562.686 446.34 631.706 510.003 631.706 588.538C631.706 627.545 564.049 659.159 477.543 659.159C458.261 659.159 439.927 657.578 423.056 654.708C423.078 655.634 423.134 656.56 423.134 657.495C423.134 682.669 364.47 703.073 295 703.073C225.529 703.073 169.216 682.669 169.216 657.495C169.216 592.821 226.057 540.392 296.173 540.392C308.192 540.392 319.808 541.969 330.828 544.843C350.815 487.695 408.929 446.34 477.543 446.34ZM477.543 422.387C406.951 422.387 344.107 459.829 314.675 517.481C308.536 516.787 302.357 516.439 296.173 516.439C211.852 516.439 143.247 579.719 143.247 657.495C143.247 705.269 221.915 727.027 295 727.027C355.494 727.027 419.745 712.571 441.446 681.36C453.232 682.526 465.303 683.112 477.543 683.112C523.183 683.112 566.2 674.873 598.67 659.902C636.718 642.364 657.675 617.022 657.675 588.538C657.675 496.921 576.869 422.387 477.543 422.387Z" fill="#6E4123"/>
<path d="M257.635 600.003C257.635 602.529 258.483 605.03 260.129 607.364C261.776 609.697 264.19 611.818 267.233 613.604C270.275 615.39 273.888 616.807 277.863 617.773C281.839 618.74 286.1 619.237 290.403 619.237C294.706 619.237 298.967 618.74 302.943 617.773C306.919 616.807 310.531 615.39 313.574 613.604C316.617 611.818 319.03 609.697 320.677 607.364C322.324 605.03 323.171 602.529 323.171 600.003C323.171 594.902 319.719 590.01 313.574 586.402C307.429 582.795 299.094 580.769 290.403 580.769C281.713 580.769 273.378 582.795 267.233 586.402C261.087 590.01 257.635 594.902 257.635 600.003Z" fill="white"/>
<path d="M290.403 627.222C267.174 627.222 248.979 615.265 248.979 600.003C248.979 584.741 267.174 572.784 290.403 572.784C313.632 572.784 331.828 584.741 331.828 600.003C331.828 615.265 313.632 627.222 290.403 627.222ZM290.403 588.749C276.822 588.749 266.291 594.797 266.291 599.999C266.291 605.205 276.826 611.249 290.403 611.249C303.985 611.249 314.515 605.201 314.515 599.999C314.515 594.797 303.981 588.749 290.403 588.749Z" fill="#6E4123"/>
<path d="M290.403 604.718C286.96 604.718 283.657 603.456 281.222 601.21C278.787 598.964 277.419 595.918 277.419 592.741V358.296C277.419 355.12 278.787 352.073 281.222 349.827C283.657 347.581 286.96 346.32 290.403 346.32C293.847 346.32 297.149 347.581 299.585 349.827C302.02 352.073 303.388 355.12 303.388 358.296V592.745C303.388 594.318 303.052 595.875 302.399 597.328C301.747 598.781 300.79 600.101 299.584 601.213C298.378 602.324 296.947 603.206 295.372 603.808C293.796 604.409 292.108 604.718 290.403 604.718Z" fill="#6E4123"/>
<path d="M389.95 398.218L290.403 439.589V354.304L389.95 398.218Z" fill="#F6E89A"/>
<path d="M290.403 451.566C286.96 451.566 283.657 450.304 281.222 448.058C278.787 445.812 277.419 442.765 277.419 439.589V354.304C277.419 352.281 277.975 350.29 279.035 348.519C280.095 346.747 281.625 345.253 283.481 344.174C285.336 343.095 287.458 342.468 289.648 342.35C291.838 342.232 294.025 342.628 296.004 343.501L395.551 387.415C397.784 388.399 399.666 389.952 400.975 391.89C402.283 393.829 402.963 396.072 402.935 398.355C402.907 400.638 402.172 402.866 400.816 404.777C399.46 406.687 397.54 408.2 395.282 409.137L295.735 450.508C294.059 451.204 292.242 451.564 290.403 451.566ZM303.388 373.307V421.057L359.121 397.895L303.388 373.307Z" fill="#6E4123"/>
<path d="M463.528 440.631H498.153V503.464H463.528V440.631Z" fill="white"/>
<path d="M498.153 511.448H463.528C461.232 511.448 459.031 510.607 457.407 509.11C455.784 507.613 454.872 505.582 454.872 503.464V440.631C454.872 438.513 455.784 436.483 457.407 434.985C459.031 433.488 461.232 432.647 463.528 432.647H498.153C500.449 432.647 502.651 433.488 504.274 434.985C505.897 436.483 506.809 438.513 506.809 440.631V503.464C506.809 505.582 505.897 507.613 504.274 509.11C502.651 510.607 500.449 511.448 498.153 511.448ZM472.184 495.48H489.497V448.615H472.184V495.48Z" fill="#6E4123"/>
<path d="M563.555 427.333L563.534 427.293L563.547 427.161H563.456L489.739 323.816L416.023 427.161H415.919C415.919 427.213 415.932 427.261 415.932 427.313L415.919 427.333H415.936C416.282 438.463 450.232 461.49 490.787 461.49C531.341 461.49 563.201 438.463 563.534 427.333H563.555Z" fill="#B2EDA6"/>
<path d="M490.782 469.475C449.726 469.475 408.834 446.052 407.319 428.215C407.285 427.949 407.266 427.681 407.263 427.413L407.258 427.161C407.258 425.129 408.081 423.273 409.435 421.868L482.507 319.428C483.297 318.326 484.371 317.421 485.634 316.795C486.896 316.169 488.306 315.841 489.739 315.841C491.172 315.841 492.583 316.169 493.845 316.795C495.107 317.421 496.182 318.326 496.972 319.428L570.208 422.107C570.958 422.931 571.517 423.888 571.851 424.918C572.185 425.949 572.288 427.031 572.151 428.1C570.887 444.655 534.548 469.475 490.782 469.475ZM425.302 428.682C430.128 436.307 457.274 453.506 490.787 453.506C525.62 453.506 549.736 435.94 554.177 428.678L489.739 338.343L425.302 428.682Z" fill="#3C663E"/>
<path d="M548.113 361.761L548.095 361.729L548.1 361.626H548.026L489.739 279.902L431.444 361.626H431.357C431.357 361.666 431.366 361.705 431.37 361.741L431.357 361.761H431.375C431.647 370.564 458.495 388.773 490.566 388.773C522.633 388.773 547.827 370.568 548.082 361.761H548.113Z" fill="#B2EDA6"/>
<path d="M490.57 396.757C456.711 396.757 424.22 377.774 422.775 362.704C422.736 362.421 422.714 362.138 422.71 361.853L422.705 361.626C422.705 359.638 423.493 357.821 424.796 356.42L482.507 275.514C483.297 274.411 484.371 273.507 485.633 272.881C486.896 272.255 488.306 271.927 489.739 271.927C491.172 271.927 492.583 272.255 493.845 272.881C495.107 273.507 496.181 274.411 496.972 275.514L554.83 356.643C556.029 358.009 556.752 359.737 556.752 361.626V361.717C556.752 362.021 556.734 362.328 556.695 362.632C555.406 377.854 524.563 396.757 490.57 396.757ZM441.018 362.731C445.874 368.636 465.523 380.784 490.566 380.784C515.176 380.784 534.007 368.684 538.522 362.827L489.739 294.429L441.018 362.731Z" fill="#3C663E"/>
<path d="M576.059 535.402H545.763V486.793L576.059 487.495V535.402Z" fill="white"/>
<path d="M576.059 543.386H545.763C543.467 543.386 541.265 542.545 539.642 541.047C538.018 539.55 537.106 537.519 537.106 535.402V486.793C537.106 484.641 538.05 482.577 539.716 481.076C540.536 480.323 541.514 479.734 542.591 479.345C543.667 478.955 544.819 478.774 545.975 478.812L576.272 479.515C578.529 479.567 580.675 480.431 582.251 481.921C583.828 483.412 584.711 485.413 584.711 487.495V535.402C584.716 539.813 580.838 543.386 576.059 543.386ZM554.419 527.417H567.403V495.28L554.419 494.981V527.417Z" fill="#6E4123"/>
<path d="M615.013 473.798L614.995 473.766L615.004 473.666H614.93L557.903 393.723L500.88 473.662H500.793C500.793 473.702 500.806 473.742 500.806 473.778L500.793 473.794H500.806C501.079 482.401 527.338 500.214 558.712 500.214C590.087 500.214 614.731 482.401 614.987 473.794H615.013V473.798Z" fill="#B2EDA6"/>
<path d="M558.717 508.203C525.451 508.203 493.518 489.475 492.198 474.644C492.168 474.406 492.15 474.166 492.146 473.926L492.141 473.666C492.141 471.678 492.929 469.862 494.232 468.461L550.671 389.331C551.459 388.226 552.532 387.319 553.795 386.691C555.057 386.063 556.469 385.734 557.903 385.734C559.337 385.734 560.749 386.063 562.011 386.691C563.274 387.319 564.347 388.226 565.135 389.331L621.734 468.68C622.933 470.049 623.656 471.778 623.656 473.666L623.647 473.982C623.642 474.17 623.631 474.357 623.613 474.545C622.483 489.527 592.143 508.203 558.717 508.203ZM510.48 474.736C515.34 480.493 534.501 492.234 558.717 492.234C582.946 492.234 600.964 480.641 605.417 474.852L557.903 408.246L510.48 474.736Z" fill="#3C663E"/>
<path d="M603.063 423.069L603.045 423.045L603.054 422.962H602.993L557.903 359.741L512.813 422.966H512.748L512.756 423.053L512.748 423.069H512.761C512.973 429.88 533.739 443.961 558.548 443.961C583.357 443.961 602.846 429.88 603.045 423.069H603.063Z" fill="#B2EDA6"/>
<path d="M558.548 451.949C532.925 451.949 505.407 437.677 504.148 423.948C504.117 423.698 504.1 423.448 504.096 423.197L504.091 422.966C504.091 421.017 504.849 419.229 506.108 417.844L550.675 355.358C551.463 354.253 552.537 353.345 553.799 352.717C555.061 352.09 556.473 351.761 557.907 351.761C559.342 351.761 560.753 352.09 562.016 352.717C563.278 353.345 564.352 354.253 565.14 355.358L609.84 418.031C611.013 419.393 611.715 421.105 611.715 422.966L611.71 423.237C611.705 423.422 611.694 423.607 611.676 423.792C610.663 436.343 585.863 451.949 558.548 451.949ZM522.668 423.68C527.23 428.151 541.145 435.98 558.548 435.98C575.596 435.98 588.949 428.207 593.225 423.788L557.907 374.273L522.668 423.68Z" fill="#3C663E"/>
<path d="M489.739 279.902L548.026 361.626H548.1L548.095 361.729L548.113 361.761H548.087C547.953 366.408 540.824 373.658 529.45 379.483L536.635 389.563L557.903 359.745L602.993 422.966H603.054L603.045 423.049L603.063 423.073H603.045C602.941 426.666 597.423 432.279 588.624 436.787L614.93 473.666H615.004L614.995 473.766L615.013 473.798H614.991C614.736 482.405 590.091 500.218 558.717 500.218C527.342 500.218 501.083 482.405 500.811 473.798H500.798L500.811 473.782C500.811 473.742 500.798 473.702 500.798 473.666H500.884L510.943 459.562C504.311 460.828 497.559 461.474 490.787 461.49C450.232 461.49 416.282 438.463 415.936 427.333H415.919L415.932 427.313C415.932 427.261 415.919 427.213 415.919 427.161H416.023L450.262 379.163C438.828 373.395 431.517 366.324 431.379 361.765H431.362L431.375 361.745L431.362 361.63H431.448L489.739 279.902ZM615.004 473.662H615.026ZM489.739 263.933C486.871 263.933 484.048 264.591 481.523 265.846C478.998 267.102 476.851 268.916 475.275 271.127L417.654 351.909C415.088 354.96 413.818 358.77 414.084 362.624L414.123 363.115C414.737 371.147 420.16 377.966 426.583 383.311L402.307 417.345C399.537 420.57 398.24 424.665 398.693 428.758C400.55 451.338 442.519 474.824 483.862 477.247C487.809 497.005 523.88 516.183 558.725 516.183C594.437 516.183 630.083 496.302 632.213 475.619C632.29 474.969 632.332 474.316 632.338 473.662C632.345 470.04 631.011 466.525 628.555 463.698L611.883 440.328C616.172 436.104 619.7 430.854 620.28 424.742C620.371 423.988 620.392 423.225 620.366 422.467C620.257 419.105 618.995 415.863 616.761 413.205L572.376 350.974C570.63 348.525 568.187 346.567 565.314 345.313C562.441 344.06 559.25 343.56 556.089 343.868L504.204 271.127C502.628 268.916 500.481 267.102 497.956 265.846C495.431 264.59 492.608 263.933 489.739 263.933Z" fill="#3C663E"/>
</g>
<defs>
<clipPath id="clip0_1_10">
<rect width="800" height="800" fill="white"/>
</clipPath>
</defs>
</svg>
