<svg width="12" height="13" viewBox="0 0 12 13" fill="none" xmlns="http://www.w3.org/2000/svg">
<path d="M5 5.91394V1.91394C5 1.64872 5.10536 1.39437 5.29289 1.20683C5.48043 1.0193 5.73478 0.91394 6 0.91394C6.26522 0.91394 6.51957 1.0193 6.70711 1.20683C6.89464 1.39437 7 1.64872 7 1.91394V5.91394H11C11.2652 5.91394 11.5196 6.0193 11.7071 6.20683C11.8946 6.39437 12 6.64872 12 6.91394C12 7.17916 11.8946 7.43351 11.7071 7.62105C11.5196 7.80858 11.2652 7.91394 11 7.91394H7V11.9139C7 12.1792 6.89464 12.4335 6.70711 12.621C6.51957 12.8086 6.26522 12.9139 6 12.9139C5.73478 12.9139 5.48043 12.8086 5.29289 12.621C5.10536 12.4335 5 12.1792 5 11.9139V7.91394H1C0.734784 7.91394 0.48043 7.80858 0.292893 7.62105C0.105357 7.43351 0 7.17916 0 6.91394C0 6.64872 0.105357 6.39437 0.292893 6.20683C0.48043 6.0193 0.734784 5.91394 1 5.91394H5Z" fill="#958F8F"/>
</svg>
