<svg width="11" height="11" viewBox="0 0 11 11" fill="none" xmlns="http://www.w3.org/2000/svg">
<path fill-rule="evenodd" clip-rule="evenodd" d="M2.40625 0C1.96654 0 1.53358 0.161787 1.2077 0.46743C0.880817 0.772735 0.6875 1.19681 0.6875 1.65V9.35C0.6875 9.80341 0.881006 10.2277 1.20818 10.533C1.53292 10.8367 1.96522 11 2.40625 11H8.59375C9.03475 11 9.46701 10.8367 9.79174 10.5331C10.119 10.2277 10.3125 9.80344 10.3125 9.35V4.125V4.05625C10.3125 3.87151 10.2381 3.69454 10.1062 3.56523L6.66923 0.197002C6.54518 0.0751549 6.37512 0 6.1875 0H2.40625ZM5.5 1.375H2.40625C2.29911 1.375 2.20721 1.41504 2.14819 1.47049L2.14641 1.47216L2.1464 1.47215C2.08608 1.52841 2.0625 1.59348 2.0625 1.65V9.35C2.0625 9.40652 2.08608 9.47159 2.1464 9.52785L2.14723 9.52862C2.20745 9.58497 2.30022 9.625 2.40625 9.625H8.59375C8.69978 9.625 8.79255 9.58497 8.85277 9.52862L8.8536 9.52785C8.91392 9.47159 8.9375 9.40652 8.9375 9.35V4.8125H6.1875C5.8078 4.8125 5.5 4.5047 5.5 4.125V1.375ZM8.01138 3.4375L6.875 2.32385V3.4375H8.01138Z" fill="#999999"/>
</svg>
