<svg width="10" height="10" viewBox="0 0 10 10" fill="none" xmlns="http://www.w3.org/2000/svg">
<path fill-rule="evenodd" clip-rule="evenodd" d="M1.99351 0.702351C1.63696 0.345798 1.05887 0.345798 0.70232 0.702351C0.345768 1.0589 0.345768 1.63699 0.70232 1.99354L3.70876 4.99998L0.70232 8.00643C0.345768 8.36298 0.345768 8.94106 0.70232 9.29762C1.05887 9.65417 1.63696 9.65417 1.99351 9.29762L4.99995 6.29117L8.00639 9.29762C8.36295 9.65417 8.94103 9.65417 9.29759 9.29762C9.65414 8.94106 9.65414 8.36298 9.29759 8.00643L6.29114 4.99998L9.29759 1.99354C9.65414 1.63699 9.65414 1.0589 9.29759 0.702351C8.94103 0.345798 8.36295 0.345798 8.00639 0.702351L4.99995 3.70879L1.99351 0.702351Z" fill="black" fill-opacity="0.4"/>
</svg>
