<svg width="11" height="11" viewBox="0 0 11 11" fill="none" xmlns="http://www.w3.org/2000/svg">
<path fill-rule="evenodd" clip-rule="evenodd" d="M8.94239 1.7267C8.83108 1.68061 8.70858 1.66866 8.59045 1.69234C8.47232 1.71603 8.3639 1.77429 8.27896 1.85972L8.27756 1.86112L2.21917 7.91951L1.89623 9.10375L3.08046 8.7808L9.13885 2.72241L9.13897 2.7223C9.25334 2.60798 9.31762 2.45291 9.31768 2.29119L9.31768 2.28973C9.31798 2.16925 9.28246 2.0514 9.21564 1.95115C9.14882 1.85091 9.05371 1.77278 8.94239 1.7267ZM8.32013 0.344176C8.70551 0.266904 9.10516 0.305915 9.46832 0.456255C9.83149 0.606596 10.1418 0.861481 10.3598 1.18854C10.5776 1.51539 10.6935 1.89958 10.6927 2.29238C10.6923 2.81845 10.4831 3.32288 10.111 3.69479L3.92363 9.88218C3.83902 9.96678 3.7338 10.0278 3.61837 10.0593L1.09731 10.7468C0.859289 10.8117 0.604742 10.7441 0.430292 10.5697C0.255843 10.3952 0.188241 10.1407 0.253149 9.90267L0.940649 7.3816C0.972128 7.26617 1.03319 7.16095 1.11779 7.07635L7.3039 0.890244C7.30416 0.889978 7.30443 0.889713 7.30469 0.889448C7.5817 0.611157 7.93512 0.421375 8.32013 0.344176ZM10.6927 2.29238C10.6927 2.29262 10.6927 2.29287 10.6927 2.29311L10.0052 2.29142L10.6927 2.29165C10.6927 2.29189 10.6927 2.29214 10.6927 2.29238Z" fill="#999999"/>
</svg>
