<svg width="16" height="16" viewBox="0 0 16 16" fill="none" xmlns="http://www.w3.org/2000/svg">
<path fill-rule="evenodd" clip-rule="evenodd" d="M12 2.9187C11.8902 2.9187 11.7848 2.96234 11.7071 3.04002L11.7071 3.04006L3.56994 11.1762L3.37427 11.9586L4.15598 11.7637L12.2929 3.62585L12.2929 3.62581C12.3706 3.54813 12.4142 3.44277 12.4142 3.33291C12.4142 3.22306 12.3706 3.1177 12.2929 3.04002C12.2152 2.96234 12.1099 2.9187 12 2.9187ZM10.293 1.62577C10.7457 1.17304 11.3598 0.918701 12 0.918701C12.6403 0.918701 13.2544 1.17305 13.7071 1.62581C14.1599 2.07856 14.4142 2.69263 14.4142 3.33291C14.4142 3.97318 14.1599 4.58723 13.7072 5.03998C13.7072 5.03999 13.7071 5.04001 13.7071 5.04002L5.37417 13.374C5.24586 13.5023 5.08504 13.5933 4.90896 13.6372L2.24196 14.3022C1.90122 14.3872 1.54089 14.2872 1.29266 14.0388C1.04444 13.7904 0.944699 13.43 1.0299 13.0893L1.6969 10.4223C1.74087 10.2465 1.8318 10.0859 1.95996 9.95777L10.2929 1.62581C10.2929 1.62579 10.2929 1.62578 10.293 1.62577ZM7.00002 12.9999C7.00002 12.4476 7.44774 11.9999 8.00002 11.9999H14C14.5523 11.9999 15 12.4476 15 12.9999C15 13.5522 14.5523 13.9999 14 13.9999H8.00002C7.44774 13.9999 7.00002 13.5522 7.00002 12.9999Z" fill="#999999"/>
</svg>
